<svg width="1024" height="1024" xmlns="http://www.w3.org/2000/svg" class="icon">
 <defs>
  <style type="text/css"/>
 </defs>
 <g>
  <title>background</title>
  <rect fill="none" id="canvas_background" height="402" width="582" y="-1" x="-1"/>
 </g>
 <g>
  <title>Layer 1</title>
  <path transform="rotate(-180 512.0046997070312,410.45120239257807) " id="svg_1" fill="black" d="m689.3568,820.9408l-355.7376,0c-13.9264,0 -25.1904,-11.264 -25.1904,-25.1904l0,-330.5984l-211.968,0c-10.1888,0 -19.4048,-6.144 -23.296,-15.5648c-3.9424,-9.3696 -1.7408,-20.2752 5.4784,-27.4432l415.0272,-415.0784c9.472,-9.472 26.1632,-9.472 35.6352,0l411.392,411.3408c7.2704,4.4544 12.0832,12.4416 12.0832,21.5552c0,14.1312 -11.52,24.576 -25.7024,25.1904c-0.1536,0 -0.3072,0 -0.512,0l-211.968,0l0,330.5472c0,13.9264 -11.3152,25.2416 -25.2416,25.2416zm-330.5472,-50.432l305.3568,0l0,-330.5472c0,-13.9264 11.264,-25.1904 25.1904,-25.1904l176.3328,0l-354.2016,-354.2528l-354.2016,354.2528l176.3328,0c13.9264,0 25.1904,11.264 25.1904,25.1904l0,330.5472z"/>
  <path id="svg_2" fill="black" d="m96.4096,923.1872l830.1056,0l0,100.8128l-830.1056,0l0,-100.8128l0,0zm0,0"/>
 </g>
</svg>